Coordinates
version=1
nRows=12
nColumns=24
inDegrees=yes

Units are S.I. units (second, meters, Newtons, ...)
If the header above contains a line with 'inDegrees', this indicates whether rotational values are in degrees (yes) or radians (no).

endheader
time	pelvis_tilt	pelvis_list	pelvis_rotation	pelvis_tx	pelvis_ty	pelvis_tz	lumbar_extension	lumbar_bending	lumbar_rotation	arm_flex_r	arm_add_r	arm_rot_r	elbow_flex_r	pro_sup_r	wrist_flex_r	wrist_dev_r	arm_flex_l	arm_add_l	arm_rot_l	elbow_flex_l	pro_sup_l	wrist_flex_l	wrist_dev_l
     27.69600000	    -11.78212031	     -2.59672911	      4.28212745	      1.10055175	      0.87974152	      0.16254670	     -5.03650557	     -4.82951902	      2.80798717	     13.10201845	    -24.49043238	     41.12542127	     82.54938236	     73.72248954	    -28.47135232	    -20.98768236	     11.16044495	    -10.67848118	     22.24676414	     16.13504932	     63.42209582	    -24.11002219	    -14.82887972
     27.70000000	    -11.79523133	     -2.60190461	      4.31825213	      1.10051593	      0.87970266	      0.16245750	     -5.04851482	     -4.83666903	      2.84513965	     13.19693908	    -24.38467024	     41.29587055	     81.64394387	     73.62153456	    -28.61002405	    -21.10300786	     11.19075419	    -10.67485150	     22.24038895	     16.13704696	     63.39423927	    -24.10991518	    -14.78166825
     27.70400000	    -11.96979856	     -2.58970526	      4.25026743	      1.09777102	      0.87997343	      0.16226301	     -5.23788077	     -4.80172363	      2.79718243	     13.98692177	    -24.36908446	     42.04004966	     80.47599878	     73.40308763	    -29.40239887	    -22.71140144	     11.45405275	    -10.65058436	     22.07934036	     16.36636713	     63.35471865	    -24.25311032	    -14.48238514
     27.70800000	    -11.94821873	     -2.57723360	      4.31431218	      1.09827690	      0.87979973	      0.16191512	     -5.21014122	     -4.79586890	      2.86140575	     13.94142801	    -24.29220070	     42.10317351	     79.62581222	     73.22144619	    -29.40427289	    -22.64971978	     11.46281773	    -10.60369332	     22.12915504	     16.25978132	     63.36110689	    -24.20533901	    -14.49654151
     27.71200000	    -11.92777037	     -2.57479527	      4.35600129	      1.09875497	      0.87968840	      0.16175733	     -5.18517338	     -4.79857965	      2.90155813	     13.96804420	    -24.16632385	     42.24983825	     78.72242667	     73.07385635	    -29.41090043	    -22.65396099	     11.43390587	    -10.60017372	     22.22869677	     16.24659977	     63.38771807	    -23.98992596	    -14.50766435
     27.71600000	    -11.95258570	     -2.53530234	      4.45310893	      1.09866733	      0.87931208	      0.16067265	     -5.20416502	     -4.76215706	      3.00998291	     13.88475340	    -24.36287406	     42.23787539	     78.21936247	     73.02054027	    -29.42223574	    -22.61553155	     11.49237358	    -10.45450277	     22.25628273	     16.37217781	     63.40472945	    -23.95227430	    -14.52287206
     27.72000000	    -11.89919191	     -2.55448736	      4.46160167	      1.09951164	      0.87940206	      0.16116839	     -5.14680530	     -4.78862854	      3.00821861	     13.96175838	    -23.99261738	     42.40775059	     77.01940264	     72.88486514	    -29.46362019	    -22.64489462	     11.45624166	    -10.53552993	     22.28483882	     16.15351583	     63.40935195	    -23.95950131	    -14.62029951
     27.72400000	    -12.00570567	     -2.55486798	      4.39219932	      1.09793154	      0.87965104	      0.16112847	     -5.26413765	     -4.77543536	      2.94971755	     14.57358722	    -23.89164520	     43.05949628	     75.85821572	     72.67257979	    -29.82455311	    -23.86723045	     11.54798722	    -10.53934038	     22.07038270	     16.27772667	     63.31060052	    -23.98849886	    -15.26437053
     27.72800000	    -11.99499719	     -2.55582244	      4.45916853	      1.09832472	      0.87955977	      0.16096668	     -5.24855856	     -4.78319198	      3.01552063	     14.51735556	    -23.76657598	     43.04580379	     75.01579005	     72.45103136	    -29.85870293	    -23.78991328	     11.57914542	    -10.50384105	     22.13821175	     16.19625677	     63.30375092	    -23.94797866	    -15.24694878
     27.73200000	    -11.97740489	     -2.54977769	      4.50200804	      1.09877539	      0.87944794	      0.16072225	     -5.22632689	     -4.78189745	      3.05789964	     14.52512118	    -23.65551986	     43.15112251	     74.14803008	     72.27542787	    -29.89466396	    -23.76535375	     11.56100945	    -10.47227415	     22.22110556	     16.12787765	     63.27715081	    -23.88485309	    -15.16406814
     27.73600000	    -11.96439966	     -2.54468376	      4.53873195	      1.09914702	      0.87933000	      0.16051802	     -5.20954411	     -4.78071639	      3.09442997	     14.55846278	    -23.54278377	     43.28370275	     73.27308039	     72.12802286	    -29.94147102	    -23.79009282	     11.54709841	    -10.45889702	     22.29219809	     16.10133459	     63.25339813	    -23.83184559	    -15.08874296
     27.74000000	    -11.95292903	     -2.55092927	      4.56137151	      1.09944352	      0.87930558	      0.16053254	     -5.19586602	     -4.79018136	      3.11494268	     14.66102298	    -23.39201545	     43.51182124	     72.33901273	     72.01425464	    -30.02132311	    -23.90335933	     11.51311305	    -10.49490550	     22.40889119	     16.14535423	     63.25562416	    -23.62933461	    -14.99096032
